<svg width="65" height="24" viewBox="0 0 65 24" fill="none" xmlns="http://www.w3.org/2000/svg">
<g clip-path="url(#clip0)">
<path d="M14.4201 14.9672H5.11537L5.58256 14.0156L13.3451 14.0016C13.6076 14.0016 13.8326 13.8141 13.8794 13.5547L14.9544 7.5375C14.9826 7.37969 14.9404 7.21719 14.8372 7.09375C14.7863 7.033 14.7227 6.98407 14.6509 6.95034C14.5792 6.91661 14.5009 6.8989 14.4216 6.89844L4.54662 6.86562L4.46224 6.46875C4.40912 6.21562 4.18099 6.03125 3.92162 6.03125H1.50756C1.36127 6.03125 1.22098 6.08936 1.11754 6.1928C1.0141 6.29624 0.955994 6.43653 0.955994 6.58281C0.955994 6.7291 1.0141 6.86939 1.11754 6.97283C1.22098 7.07626 1.36127 7.13438 1.50756 7.13438H3.47474L3.84349 8.8875L4.75131 13.2828L3.58256 15.1906C3.52186 15.2725 3.4853 15.3698 3.47702 15.4714C3.46874 15.573 3.48906 15.675 3.53568 15.7656C3.62943 15.9516 3.81849 16.0688 4.02787 16.0688H5.00912C4.79993 16.3466 4.68694 16.685 4.68724 17.0328C4.68724 17.9172 5.40599 18.6359 6.29037 18.6359C7.17474 18.6359 7.89349 17.9172 7.89349 17.0328C7.89349 16.6844 7.77787 16.3453 7.57162 16.0688H10.0888C9.87962 16.3466 9.76662 16.685 9.76693 17.0328C9.76693 17.9172 10.4857 18.6359 11.3701 18.6359C12.2544 18.6359 12.9732 17.9172 12.9732 17.0328C12.9732 16.6844 12.8576 16.3453 12.6513 16.0688H14.4216C14.7247 16.0688 14.9732 15.8219 14.9732 15.5172C14.9723 15.3711 14.9136 15.2312 14.81 15.1282C14.7064 15.0251 14.5662 14.9673 14.4201 14.9672V14.9672ZM4.77631 7.95312L13.7732 7.98281L12.8919 12.9172L5.82474 12.9297L4.77631 7.95312ZM6.29037 17.5266C6.01849 17.5266 5.79662 17.3047 5.79662 17.0328C5.79662 16.7609 6.01849 16.5391 6.29037 16.5391C6.56224 16.5391 6.78412 16.7609 6.78412 17.0328C6.78412 17.1638 6.7321 17.2894 6.6395 17.3819C6.54691 17.4745 6.42132 17.5266 6.29037 17.5266V17.5266ZM11.3701 17.5266C11.0982 17.5266 10.8763 17.3047 10.8763 17.0328C10.8763 16.7609 11.0982 16.5391 11.3701 16.5391C11.6419 16.5391 11.8638 16.7609 11.8638 17.0328C11.8638 17.1638 11.8118 17.2894 11.7192 17.3819C11.6266 17.4745 11.501 17.5266 11.3701 17.5266V17.5266Z" fill="#8C8C8C"/>
<path d="M20.1172 12.1172L25.7656 18H23.8359L18.6328 12.5234H18.5703V18H17.1641V6.72656H18.5703V11.9219H18.6328L23.4766 6.72656H25.2422L20.1172 12.1172ZM29.8047 18.1406C28.6693 18.1406 27.7578 17.763 27.0703 17.0078C26.3828 16.2474 26.0391 15.224 26.0391 13.9375C26.0391 12.651 26.3828 11.6302 27.0703 10.875C27.7578 10.1146 28.6693 9.73438 29.8047 9.73438C30.9349 9.73438 31.8438 10.1146 32.5312 10.875C33.2188 11.6302 33.5625 12.651 33.5625 13.9375C33.5625 15.2188 33.2188 16.2396 32.5312 17C31.8438 17.7604 30.9349 18.1406 29.8047 18.1406ZM28.0625 16.1484C28.4948 16.6797 29.0755 16.9453 29.8047 16.9453C30.5339 16.9453 31.112 16.6823 31.5391 16.1562C31.9661 15.625 32.1797 14.8854 32.1797 13.9375C32.1797 12.9896 31.9661 12.2526 31.5391 11.7266C31.112 11.1953 30.5339 10.9297 29.8047 10.9297C29.0755 10.9297 28.4948 11.1953 28.0625 11.7266C27.6354 12.2578 27.4219 12.9948 27.4219 13.9375C27.4219 14.8802 27.6354 15.6172 28.0625 16.1484ZM39.0234 9.73438C40.0651 9.73438 40.9036 10.1172 41.5391 10.8828C42.1797 11.6484 42.5 12.6667 42.5 13.9375C42.5 15.2031 42.1823 16.2214 41.5469 16.9922C40.9115 17.7578 40.0807 18.1406 39.0547 18.1406C38.4818 18.1406 37.9688 18.0104 37.5156 17.75C37.0625 17.4896 36.7135 17.1328 36.4688 16.6797H36.4375V20.7109H35.0781V9.875H36.3672V11.25H36.3984C36.6536 10.7812 37.0104 10.4115 37.4688 10.1406C37.9271 9.86979 38.4453 9.73438 39.0234 9.73438ZM38.7578 16.9453C39.4818 16.9453 40.0547 16.6745 40.4766 16.1328C40.8984 15.5911 41.1094 14.8594 41.1094 13.9375C41.1094 13.0156 40.8984 12.2839 40.4766 11.7422C40.0547 11.2005 39.4818 10.9297 38.7578 10.9297C38.0599 10.9297 37.4974 11.2057 37.0703 11.7578C36.6432 12.3099 36.4297 13.0365 36.4297 13.9375C36.4297 14.8438 36.6432 15.5729 37.0703 16.125C37.4974 16.6719 38.0599 16.9453 38.7578 16.9453ZM46.7188 18.1406C45.8229 18.1406 45.0807 17.9375 44.4922 17.5312C43.9036 17.1198 43.5755 16.5729 43.5078 15.8906H44.8828C44.9609 16.2448 45.1589 16.5208 45.4766 16.7188C45.7995 16.9167 46.2135 17.0156 46.7188 17.0156C47.2969 17.0156 47.7474 16.8932 48.0703 16.6484C48.3932 16.3984 48.5547 16.0703 48.5547 15.6641C48.5547 15.2109 48.4036 14.8776 48.1016 14.6641C47.7995 14.4453 47.3385 14.3359 46.7188 14.3359H45.5V13.2266H46.7188C47.7604 13.2266 48.2812 12.8307 48.2812 12.0391C48.2812 11.6849 48.151 11.401 47.8906 11.1875C47.6354 10.974 47.2552 10.8672 46.75 10.8672C46.2708 10.8672 45.875 10.9635 45.5625 11.1562C45.25 11.349 45.0651 11.6068 45.0078 11.9297H43.6875C43.776 11.2578 44.0938 10.724 44.6406 10.3281C45.1875 9.93229 45.8906 9.73438 46.75 9.73438C47.6562 9.73438 48.3594 9.9349 48.8594 10.3359C49.3594 10.7318 49.6094 11.263 49.6094 11.9297C49.6094 12.3464 49.4844 12.7188 49.2344 13.0469C48.9896 13.375 48.6667 13.5859 48.2656 13.6797V13.7422C48.7917 13.8568 49.1927 14.0781 49.4688 14.4062C49.75 14.7292 49.8906 15.1276 49.8906 15.6016C49.8906 16.362 49.599 16.9766 49.0156 17.4453C48.4375 17.9089 47.6719 18.1406 46.7188 18.1406ZM52.7891 18H51.4453V9.875H52.7891V15.9219H52.8516L56.9141 9.875H58.2578V18H56.9141V11.9531H56.8516L52.7891 18ZM65.5156 18V14.3438H61.5078V18H60.1641V9.875H61.5078V13.2266H65.5156V9.875H66.8594V18H65.5156ZM71.4609 16.9844C72.1016 16.9844 72.638 16.7865 73.0703 16.3906C73.5078 15.9896 73.7266 15.4974 73.7266 14.9141V14.25L71.5547 14.3828C71.0078 14.4193 70.5833 14.5521 70.2812 14.7812C69.9844 15.0104 69.8359 15.3177 69.8359 15.7031C69.8359 16.0885 69.9844 16.3984 70.2812 16.6328C70.5781 16.8672 70.9714 16.9844 71.4609 16.9844ZM71.1562 18.1406C70.349 18.1406 69.6953 17.9167 69.1953 17.4688C68.7005 17.0208 68.4531 16.4323 68.4531 15.7031C68.4531 15.0052 68.7083 14.4479 69.2188 14.0312C69.7344 13.6146 70.4609 13.3802 71.3984 13.3281L73.7266 13.1953V12.5156C73.7266 12.0208 73.5703 11.6328 73.2578 11.3516C72.9453 11.0703 72.5078 10.9297 71.9453 10.9297C71.4297 10.9297 71.0104 11.0443 70.6875 11.2734C70.3646 11.4974 70.1589 11.8125 70.0703 12.2188H68.7578C68.8047 11.4948 69.1172 10.901 69.6953 10.4375C70.2786 9.96875 71.0391 9.73438 71.9766 9.73438C72.9297 9.73438 73.6849 9.97396 74.2422 10.4531C74.8047 10.9323 75.0859 11.5755 75.0859 12.3828V18H73.7969V16.6016H73.7656C73.5208 17.0651 73.1615 17.4375 72.6875 17.7188C72.2135 18 71.7031 18.1406 71.1562 18.1406Z" fill="#595959"/>
</g>
<defs>
<clipPath id="clip0">
<rect width="65" height="24" fill="white"/>
</clipPath>
</defs>
</svg>
